<svg width="1036" height="1220" viewBox="0 0 1036 1220" fill="none" xmlns="http://www.w3.org/2000/svg">
<path d="M1034.41 609.664C1034.41 945.45 743.066 1217.83 383.456 1217.83C23.8452 1217.83 -267.5 945.45 -267.5 609.664C-267.5 273.879 23.8452 1.5 383.456 1.5C743.066 1.5 1034.41 273.879 1034.41 609.664Z" stroke="#E73C68" stroke-opacity="0.3" stroke-width="3"/>
<path d="M875.218 609.664C875.218 863.297 655.146 1069.08 383.455 1069.08C111.764 1069.08 -108.309 863.297 -108.309 609.664C-108.309 356.032 111.764 150.251 383.455 150.251C655.146 150.251 875.218 356.032 875.218 609.664Z" stroke="#E73C68" stroke-opacity="0.3" stroke-width="3"/>
<path d="M713.031 609.513C713.031 779.452 565.572 917.386 383.455 917.386C201.338 917.386 53.8789 779.452 53.8789 609.513C53.8789 439.573 201.338 301.639 383.455 301.639C565.572 301.639 713.031 439.573 713.031 609.513Z" stroke="#E73C68" stroke-opacity="0.3" stroke-width="3"/>
</svg>
