<svg width="396" height="897" viewBox="0 0 396 897" fill="none" xmlns="http://www.w3.org/2000/svg">
<path d="M393.74 448.164C393.74 694.756 179.776 894.829 -84.3799 894.829C-348.536 894.829 -562.5 694.756 -562.5 448.164C-562.5 201.573 -348.536 1.5 -84.3799 1.5C179.776 1.5 393.74 201.573 393.74 448.164Z" stroke="#8E38D2" stroke-opacity="0.3" stroke-width="3"/>
<path d="M276.719 448.164C276.719 634.365 115.148 785.481 -84.3786 785.481C-283.905 785.481 -445.477 634.365 -445.477 448.164C-445.477 261.963 -283.905 110.847 -84.3786 110.847C115.148 110.847 276.719 261.963 276.719 448.164Z" stroke="#8E38D2" stroke-opacity="0.3" stroke-width="3"/>
<path d="M157.494 448.053C157.494 572.731 49.301 673.974 -84.3798 673.974C-218.061 673.974 -326.254 572.731 -326.254 448.053C-326.254 323.374 -218.061 222.132 -84.3798 222.132C49.301 222.132 157.494 323.374 157.494 448.053Z" stroke="#8E38D2" stroke-opacity="0.3" stroke-width="3"/>
</svg>
