<svg width="25" height="25" viewBox="0 0 25 25" fill="none" xmlns="http://www.w3.org/2000/svg">
<path d="M12.4987 21.8751L10.9883 20.5209C9.23481 18.9411 7.78516 17.5782 6.63932 16.4324C5.49349 15.2865 4.58203 14.2577 3.90495 13.3459C3.22786 12.4341 2.75495 11.5966 2.4862 10.8334C2.21745 10.0702 2.08273 9.28897 2.08203 8.48966C2.08203 6.85772 2.62891 5.49487 3.72266 4.40112C4.81641 3.30737 6.17925 2.7605 7.8112 2.7605C8.71398 2.7605 9.57335 2.95147 10.3893 3.33341C11.2053 3.71536 11.9084 4.25355 12.4987 4.948C13.089 4.25355 13.7921 3.71536 14.6081 3.33341C15.424 2.95147 16.2834 2.7605 17.1862 2.7605C18.8181 2.7605 20.181 3.30737 21.2747 4.40112C22.3685 5.49487 22.9154 6.85772 22.9154 8.48966C22.9154 9.28828 22.781 10.0695 22.5122 10.8334C22.2435 11.5973 21.7702 12.4348 21.0924 13.3459C20.4147 14.257 19.5032 15.2858 18.3581 16.4324C17.2129 17.5789 15.7633 18.9417 14.0091 20.5209L12.4987 21.8751Z" fill="#8529CE"/>
</svg>
