<svg width="30" height="31" viewBox="0 0 30 31" fill="none" xmlns="http://www.w3.org/2000/svg">
<path d="M24.2203 8.19102C21.8238 6.99336 18.6328 6.35938 15 6.35938C11.3672 6.35938 8.17617 6.99336 5.77969 8.19102C3.44648 9.35703 2.10938 10.9965 2.10938 12.6875V18.3125C2.10938 20.0035 3.44648 21.643 5.77969 22.809C8.17617 24.0066 11.3672 24.6406 15 24.6406C18.6328 24.6406 21.8238 24.0066 24.2203 22.809C26.5535 21.643 27.8906 20.0035 27.8906 18.3125V12.6875C27.8906 10.9965 26.5535 9.35703 24.2203 8.19102ZM6.40781 9.44961C8.5793 8.36328 11.6309 7.76562 15 7.76562C18.3691 7.76562 21.4207 8.36328 23.5922 9.44961C25.4297 10.3684 26.4844 11.5484 26.4844 12.6875C26.4844 13.8266 25.4297 15.0066 23.5922 15.9254C21.4207 17.0117 18.3691 17.6094 15 17.6094C11.6309 17.6094 8.5793 17.0117 6.40781 15.9254C4.57031 15.0066 3.51562 13.8266 3.51562 12.6875C3.51562 11.5484 4.57031 10.3684 6.40781 9.44961ZM14.2969 19.0074V23.2262C12.0422 23.1699 9.95273 22.8418 8.20312 22.2758V18.1273C9.99258 18.6559 12.0527 18.9559 14.2969 19.0074ZM15.7031 19.0074C17.9473 18.9559 20.0074 18.6559 21.7969 18.1262V22.2746C20.0473 22.8406 17.9578 23.1687 15.7031 23.225V19.0074ZM3.51562 18.3125V15.6172C4.18462 16.2532 4.94842 16.7814 5.77969 17.1828C6.10469 17.3445 6.44375 17.4961 6.79688 17.6375V21.7391C6.66445 21.6781 6.53438 21.6219 6.40781 21.5539C4.57031 20.6316 3.51562 19.4516 3.51562 18.3125ZM23.5922 21.5504C23.4656 21.6137 23.3355 21.6746 23.2031 21.7355V17.634C23.5555 17.4926 23.8945 17.341 24.2203 17.1793C25.0513 16.779 25.8151 16.252 26.4844 15.6172V18.3125C26.4844 19.4516 25.4297 20.6316 23.5922 21.5504Z" fill="#8529CE"/>
</svg>
